<?xml version="1.0" encoding="UTF-8" standalone="no"?>
<svg
   xmlns:dc="http://purl.org/dc/elements/1.1/"
   xmlns:cc="http://creativecommons.org/ns#"
   xmlns:rdf="http://www.w3.org/1999/02/22-rdf-syntax-ns#"
   xmlns:svg="http://www.w3.org/2000/svg"
   xmlns="http://www.w3.org/2000/svg"
   xmlns:sodipodi="http://sodipodi.sourceforge.net/DTD/sodipodi-0.dtd"
   xmlns:inkscape="http://www.inkscape.org/namespaces/inkscape"
   inkscape:version="1.0 (4035a4fb49, 2020-05-01)"
   sodipodi:docname="icon2.svg"
   version="1.1"
   viewBox="0 0 199.99999 200"
   height="200"
   width="200"
   data-name="Layer 1"
   id="bb635309-0dfc-4d1e-b0e3-fb0f15b3e2fe">
  <metadata
     id="metadata79">
    <rdf:RDF>
      <cc:Work
         rdf:about="">
        <dc:format>image/svg+xml</dc:format>
        <dc:type
           rdf:resource="http://purl.org/dc/dcmitype/StillImage" />
      </cc:Work>
    </rdf:RDF>
  </metadata>
  <defs
     id="defs77" />
  <sodipodi:namedview
     inkscape:current-layer="g932"
     inkscape:window-maximized="1"
     inkscape:window-y="-8"
     inkscape:window-x="-8"
     inkscape:cy="153.83529"
     inkscape:cx="278.92001"
     inkscape:zoom="0.86514652"
     showgrid="false"
     id="namedview75"
     inkscape:window-height="705"
     inkscape:window-width="1360"
     inkscape:pageshadow="2"
     inkscape:pageopacity="0"
     guidetolerance="10"
     gridtolerance="10"
     objecttolerance="10"
     borderopacity="1"
     bordercolor="#666666"
     pagecolor="#ffffff" />
  <path
     id="path2"
     fill="#f2f2f2"
     d="m 664.026,-275.15738 q -14.595,9.42 -29.31006,18.08 c -0.71,0.42 -1.41992,0.84 -2.12988,1.25 q -18.3003,10.71 -36.75,20.2 c -0.60986,0.32 -1.22021,0.63 -1.83008,0.94 q -30.78,15.75 -61.77978,28.09 c -0.7002,0.28 -1.40039,0.56 -2.1001,0.82995 q -19.18504,7.56005 -38.3901,13.78005 c -0.68994,0.22 -1.39013,0.45 -2.08008,0.66 -0.79,0.26 -1.58007,0.51 -2.37011,0.76 a 617.18833,617.18833 0 0 1 -65.76953,16.85 c -0.82032,0.16 -1.63038,0.32 -2.44043,0.48 q -22.6648,4.38 -45.46973,7 c -0.68994,0.09 -1.37012,0.17 -2.06006,0.24 a 585.80952,585.80952 0 0 1 -65.06006,3.63 c -51.25976,0 -103.62011,-6.78 -156.00976,-20.18 -0.75,-0.19 -1.5,-0.38 -2.25,-0.59 q -13.26051,-3.42 -26.53028,-7.43 -8.3247,-2.52 -16.70019,-5.27 c -0.66992,-0.22 -1.33985,-0.44 -2.00977,-0.67 q -35.61034,-11.805 -71.71,-27.8 c -0.73,-0.32 -1.46,-0.65 -2.20019,-0.98 q -21.7346195,-9.69 -43.56983,-20.88 -0.93018,-0.465 -1.85986,-0.96 -25.31982,-13.02 -50.66992,-28.01 l 1.01953,-1.72 q 26.23537,15.51 52.37014,28.87 l 0.0503,0.02 q 21.0900905,10.79993 42.10986,20.18 a 789.38488,789.38488 0 0 0 74.3999,28.91 c 1.66993,0.55 3.33008,1.1 5,1.62 q 21.15015,6.84 42.23,12.21 c 0.76026,0.2 1.51026,0.39 2.27,0.58 q 110.38551,27.81 218.16993,16.07 c 0.68994,-0.06 1.37011,-0.14 2.06005,-0.23 q 21.46509,-2.385 42.8003,-6.38 c 2.4497,-0.46 4.8999,-0.93 7.34961,-1.43 a 617.46974,617.46974 0 0 0 65.21045,-16.77 c 0.68994,-0.22 1.38964,-0.44 2.07959,-0.67 q 20.20532,-6.435 40.28027,-14.33 c 0.69971,-0.28 1.3999,-0.55 2.1001,-0.83 q 30.22485,-11.98507 60.1499,-27.24 c 0.60986,-0.3 1.21973,-0.61 1.83008,-0.93994 q 19.25976,-9.855 38.37988,-21.08 c 0.71973,-0.41 1.43018,-0.83 2.14014,-1.26 q 14.02441,-8.28 27.96972,-17.28 z" />
  <path
     id="path4"
     fill="#f2f2f2"
     d="m 28.526,-227.78738 -42.10986,-20.18 -0.0503,-0.02 -2.33985,-1.12 -0.37988,1.98 -11.58008,60.21 59.21,-37.39 1.9502,-1.23 z m -53.6201,36.71 10.6001,-55.09 v -0.02 l 43.58985,20.89 -0.02,0.01 z" />
  <path
     id="path6"
     fill="#f2f2f2"
     d="m 150.1559,-185.04738 -1.92968,1.91 -41.88037,41.29 -1.3501,-53.99 -0.0498,-2.12 2.98,0.7 c -1.66992,-0.52 -3.33007,-1.07 -5,-1.62 l 0.0601,2.37 1.48,59.32 46.01026,-45.36 1.9497,-1.92 c -0.7598,-0.19 -1.5098,-0.38 -2.27006,-0.58 z" />
  <path
     id="path8"
     fill="#f2f2f2"
     d="m 415.4562,-175.00738 4.71972,-0.57 -1.10009,2.34 -26.27983,55.62 -19.1899,-48.62 -0.9502,-2.39 c -0.68994,0.09 -1.37011,0.17 -2.06005,0.23 l 0.95019,2.4 21.08984,53.41 28.88038,-61.13 1.28955,-2.72 c -2.44971,0.5 -4.89991,0.97 -7.34961,1.43 z" />
  <path
     id="path10"
     fill="#f2f2f2"
     d="m 530.37612,-208.20738 -0.25,2.44 -5.25,51.83 -33.14012,-38.05 -1.64013,-1.89 c -0.68995,0.23 -1.38965,0.45 -2.07959,0.67 l 1.63964,1.88 36.74024,42.19 5.83008,-57.46 0.25,-2.44 c -0.70024,0.28 -1.40041,0.55 -2.10012,0.83 z" />
  <path
     id="path12"
     fill="#f2f2f2"
     d="m 632.83608,-258.29738 -0.25,2.47 -5.80029,55.9 -30.94971,-35.7 -1.37988,-1.59 c -0.61035,0.33 -1.22022,0.64 -1.83008,0.93994 l 1.37988,1.59 34.29,39.56 6.41992,-61.95 0.26026,-2.48 c -0.70992,0.43006 -1.42037,0.85006 -2.1401,1.26006 z" />
  <g
     transform="translate(-110.99881,-276.85737)"
     id="g917">
    <g
       style="stroke-width:2.26917"
       transform="matrix(0.33500838,0,0,0.57970573,73.813278,116.36157)"
       id="g932">
      <path
         style="stroke-width:2.47711"
         id="path26"
         fill="#3f3d56"
         transform="translate(-210.08119,-154.07001)"
         d="m 901.08,690.93 h -563 a 17.02419,17.02419 0 0 0 -17,17 v 51 a 17.02418,17.02418 0 0 0 17,17 h 563 a 17.02419,17.02419 0 0 0 17,-17 v -51 a 17.02419,17.02419 0 0 0 -17,-17 z m 15,68 a 15.01832,15.01832 0 0 1 -15,15 h -563 a 15.01828,15.01828 0 0 1 -15,-15 v -51 a 15.01828,15.01828 0 0 1 15,-15 h 563 a 15.01832,15.01832 0 0 1 15,15 z" />
      <path
         style="fill:#ff00ff;stroke-width:2.26917"
         id="path32"
         fill="#6c63ff"
         transform="translate(-210.08119,-154.07001)"
         d="m 816,723 c -80,-20 -250,8 -253,8 -2.93,0 -188.91,27.65 -182.78,-38.07 0.0601,-0.66 0.14,-1.32 0.24,-2 h 499.23 c 0.12,0.59 0.24,1.26 0.35,2 1.93,13.03 0.98,46.33 -64.04,30.07 z" />
      <path
         style="stroke-width:2.47711"
         id="path34"
         fill="#3f3d56"
         transform="translate(-210.08119,-154.07001)"
         d="m 838.08,607.93 h -436 a 17.02419,17.02419 0 0 0 -17,17 v 51 a 17.03918,17.03918 0 0 0 17,17 h 436 a 17.06353,17.06353 0 0 0 17,-17 v -51 a 17.02419,17.02419 0 0 0 -17,-17 z m 15,68 a 15.03109,15.03109 0 0 1 -15,15 h -436 a 15.02977,15.02977 0 0 1 -15,-15 v -51 a 15.01828,15.01828 0 0 1 15,-15 h 436 a 15.01832,15.01832 0 0 1 15,15 z" />
      <path
         style="fill:#ff00ff;stroke-width:2.26917"
         id="path36"
         fill="#6c63ff"
         transform="translate(-210.08119,-154.07001)"
         d="m 782.61138,636.031 c -69.92453,-17.48113 -218.51413,6.99245 -221.1363,6.99245 -2.561,0 -165.118,24.16763 -159.76008,-33.27534 0.0525,-0.5769 0.12239,-1.15376 0.20982,-1.74811 H 838.28 c 0.10488,0.51566 0.20976,1.10132 0.30589,1.74811 1.68697,11.38889 0.85666,40.49506 -55.97451,26.28289 z" />
      <path
         style="stroke-width:0;fill:#000000;stroke-miterlimit:4;stroke-dasharray:none;fill-opacity:1;stroke:#000000;stroke-opacity:0"
         id="path38"
         fill="#3f3d56"
         transform="translate(-210.08119,-154.07001)"
         d="m 784.08112,608.93 h -329 a 17.01908,17.01908 0 0 1 -17,-17 v -51 a 17.01909,17.01909 0 0 1 17,-17 h 329 a 17.01917,17.01917 0 0 1 17,17 v 51 a 17.01916,17.01916 0 0 1 -17,17 z m -329,-83 a 15.017,15.017 0 0 0 -15,15 v 51 a 15.017,15.017 0 0 0 15,15 h 329 a 15.017,15.017 0 0 0 15,-15 v -51 a 15.017,15.017 0 0 0 -15,-15 z" />
      <path
         style="fill:#ff00ff;stroke-width:2.26917"
         id="path40"
         fill="#6c63ff"
         transform="translate(-210.08119,-154.07001)"
         d="m 744.76055,545.53281 c -53.61894,-13.40473 -167.55917,5.3619 -169.56988,5.3619 -1.96379,0 -126.6144,18.532 -122.50588,-25.51592 0.0402,-0.44238 0.0938,-0.88472 0.16089,-1.34047 h 334.60224 c 0.0804,0.39542 0.16085,0.8445 0.23457,1.34047 1.29351,8.73321 0.65686,31.05208 -42.92194,20.15402 z" />
      <ellipse
         style="stroke-width:2.47711"
         id="ellipse42"
         fill="#3f3d56"
         ry="3"
         rx="34"
         cy="371.92999"
         cx="409.91882" />
      <path
         style="stroke-width:2.26917"
         id="path48"
         fill="#3f3d56"
         d="m 407.53644,298.44185 a 3.1064581,0.68521368 0 0 0 -3.10643,0.68521 v 25.35291 a 3.1064581,0.68521368 0 0 0 6.2129,0 v -25.35291 a 3.1064581,0.68521368 0 0 0 -3.10647,-0.68521 z" />
      <path
         style="fill:#ffb380;stroke-width:2.26917"
         id="path50"
         fill="#ff6584"
         d="m 418.75905,304.00013 c 4.6258,4.29769 -1.14199,13.42086 -7.45603,13.42086 A 11.43259,11.43259 0 0 1 399.87043,305.9884 c 0,-6.31404 12.35634,-34.16697 9.94138,-28.33294 -0.77085,1.86225 3.64986,21.42297 8.94724,26.34467 z" />
      <path
         style="fill:#ff00ff;stroke-width:2.26917"
         id="path52"
         fill="#cccccc"
         d="M 414.68839,371.19176 H 401.4672 a 3.5035589,2.0186319 0 0 1 -3.49972,-2.01643 v -45.70536 a 3.5035512,2.0186274 0 0 1 3.49972,-2.01642 h 13.22119 a 3.5035434,2.018623 0 0 1 3.49972,2.01642 v 45.70536 a 3.5035512,2.0186274 0 0 1 -3.49972,2.01643 z" />
    </g>
  </g>
</svg>
